REM GENRE "Industrial"
REM DATE 2024
REM DISCID 8A09A80B
REM COMMENT "ExactAudioCopy v1.6"
PERFORMER "Pain"
TITLE "I Am"
REM COMPOSER ""
FILE "Pain - I Am.flac" WAVE
  TRACK 01 AUDIO
    TITLE "I Just Dropped By (to say goodbye)"
    PERFORMER "Pain"
    REM COMPOSER ""
    INDEX 01 00:00:00
  TRACK 02 AUDIO
    TITLE "Don't Wake The Dead"
    PERFORMER "Pain"
    REM COMPOSER ""
    INDEX 01 03:52:30
  TRACK 03 AUDIO
    TITLE "Go With The Flow"
    PERFORMER "Pain"
    REM COMPOSER ""
    INDEX 01 07:59:68
  TRACK 04 AUDIO
    TITLE "Not For Sale"
    PERFORMER "Pain"
    REM COMPOSER ""
    INDEX 01 11:01:68
  TRACK 05 AUDIO
    TITLE "Party in My Head"
    PERFORMER "Pain"
    REM COMPOSER ""
    INDEX 01 14:12:68
  TRACK 06 AUDIO
    TITLE "I Am"
    PERFORMER "Pain"
    REM COMPOSER ""
    INDEX 01 17:21:01
  TRACK 07 AUDIO
    TITLE "Push The Pusher"
    PERFORMER "Pain"
    REM COMPOSER ""
    INDEX 01 21:19:61
  TRACK 08 AUDIO
    TITLE "The New Norm"
    PERFORMER "Pain"
    REM COMPOSER ""
    INDEX 01 25:31:24
  TRACK 09 AUDIO
    TITLE "Revolution"
    PERFORMER "Pain"
    REM COMPOSER ""
    INDEX 01 29:38:63
  TRACK 10 AUDIO
    TITLE "My Angel"
    PERFORMER "Pain"
    REM COMPOSER ""
    INDEX 01 33:03:26
  TRACK 11 AUDIO
    TITLE "Fair Game"
    PERFORMER "Pain"
    REM COMPOSER ""
    INDEX 01 36:54:63
